<svg xmlns="http://www.w3.org/2000/svg" viewBox="0 0 64 64" fill="none">
  <!-- Background circle -->
  <rect width="64" height="64" rx="14" fill="#78350f"/>
  
  <!-- Steam wisps -->
  <path d="M22 10 Q24 7 22 4" stroke="#d97706" stroke-width="2" stroke-linecap="round" fill="none" opacity="0.8"/>
  <path d="M32 10 Q34 6 32 3" stroke="#d97706" stroke-width="2" stroke-linecap="round" fill="none" opacity="0.9"/>
  <path d="M42 10 Q44 7 42 4" stroke="#d97706" stroke-width="2" stroke-linecap="round" fill="none" opacity="0.8"/>

  <!-- Cup body -->
  <path d="M16 18 L18 48 Q18 50 20 50 L44 50 Q46 50 46 48 L48 18 Z" fill="#fef3c7" stroke="#d97706" stroke-width="1.5"/>

  <!-- Coffee liquid -->
  <path d="M18.5 26 L45.5 26 L44 48 Q44 49 43 49 L21 49 Q20 49 20 48 Z" fill="#92400e"/>
  
  <!-- Coffee surface sheen -->
  <ellipse cx="32" cy="26" rx="13.5" ry="3" fill="#78350f"/>
  <ellipse cx="30" cy="26" rx="5" ry="1.5" fill="#a16207" opacity="0.5"/>

  <!-- Cup handle -->
  <path d="M46 28 Q56 28 56 36 Q56 44 46 44" stroke="#d97706" stroke-width="3" stroke-linecap="round" fill="none"/>

  <!-- Saucer -->
  <ellipse cx="32" cy="52" rx="20" ry="3.5" fill="#d97706"/>
  <ellipse cx="32" cy="52" rx="16" ry="2" fill="#fbbf24" opacity="0.4"/>
</svg>